<svg id="Calque_1" data-name="Calque 1" xmlns="http://www.w3.org/2000/svg" viewBox="0 0 556.52 148.02"><defs><style>.cls-1,.cls-2,.cls-3{isolation:isolate;}.cls-2,.cls-3{font-size:63.49px;}.cls-2,.cls-6{fill:#1c5f41;}.cls-2{font-family:Helvetica-Bold, Helvetica;font-weight:700;letter-spacing:0.1em;}.cls-3,.cls-7{fill:#3dab78;}.cls-3{font-family:Helvetica-Light, Helvetica;font-weight:300;letter-spacing:0.1em;}.cls-4,.cls-5{fill:none;stroke:#2f7e53;stroke-miterlimit:2.84;}.cls-4{stroke-width:1.28px;stroke-dasharray:4.97 2.84;}.cls-5{stroke-width:0.85px;}.cls-8{fill:#2f7e53;}</style></defs><title>logo de refference </title><g class="cls-1"><text class="cls-2" transform="translate(146.29 98.13)">Jokko</text><text class="cls-3" transform="translate(359.69 96.9)">ndiral</text></g><circle class="cls-4" cx="63.75" cy="75.89" r="63.11"/><line class="cls-5" x1="63.75" y1="75.89" x2="63.75" y2="12.77"/><line class="cls-5" x1="63.75" y1="75.89" x2="117.85" y2="44.33"/><line class="cls-5" x1="63.75" y1="75.89" x2="117.85" y2="107.44"/><line class="cls-5" x1="63.75" y1="75.89" x2="63.75" y2="139"/><line class="cls-5" x1="63.75" y1="75.89" x2="9.66" y2="107.44"/><line class="cls-5" x1="63.75" y1="75.89" x2="9.66" y2="44.33"/><circle class="cls-6" cx="63.54" cy="75.89" r="31.56"/><circle class="cls-7" cx="63.75" cy="12.77" r="12.77"/><circle class="cls-8" cx="117.85" cy="44.33" r="9.02"/><circle class="cls-8" cx="117.85" cy="107.44" r="9.02"/><circle class="cls-8" cx="63.75" cy="139" r="9.02"/><circle class="cls-8" cx="9.66" cy="107.44" r="9.02"/><circle class="cls-8" cx="9.66" cy="44.33" r="9.02"/><path class="cls-7" d="M270.87,265.92a20.12,20.12,0,0,1,.89,2.19,3.57,3.57,0,0,1-.41,2.51,10.61,10.61,0,0,1-2.47,3.17c-1,.9-2,1.76-3.09,2.57a5.59,5.59,0,0,0-2,3,3.91,3.91,0,0,0,.24,2c.22.84.49,1.67.64,2.52a3,3,0,0,1-1.69,3.31c-.44.24-.87.52-1.29.79-.24.15-.21.32,0,.52a2.72,2.72,0,0,1,.76,1.73,2.11,2.11,0,0,1-2,2.23c.11.76-.39,1.21-.84,1.71a4,4,0,0,0-.78,1.18,4,4,0,0,1-2.75,2.31c-.84.25-1.72.4-2.59.58a6,6,0,0,1-1.24.21,2.6,2.6,0,0,1-2.52-2.69.86.86,0,0,0-.2-.57,9.17,9.17,0,0,1-1.87-4.58,3.35,3.35,0,0,0-.74-1.66c-.29-.42-.6-.84-.88-1.28a3.65,3.65,0,0,1-.31-3.26c.18-.52.37-1,.6-1.54a3.11,3.11,0,0,0-.41-3.26,7.11,7.11,0,0,1-1.32-2.47,6.08,6.08,0,0,1-.19-2.58.92.92,0,0,0,0-.4c0-.17-.13-.24-.34-.22a2.23,2.23,0,0,1-2.16-1.06.9.9,0,0,0-1.39-.35,3.87,3.87,0,0,1-2.87.31.87.87,0,0,0-.63.07,3.45,3.45,0,0,1-3.79-.32,11.36,11.36,0,0,1-1.91-1.55c-.92-.94-1.93-1.78-2.89-2.68a.8.8,0,0,1-.19-.46,3.86,3.86,0,0,1,.65-2.12,12,12,0,0,0,.55-1.4.57.57,0,0,0-.22-.62,4.6,4.6,0,0,1-.52-.56,1.84,1.84,0,0,1-.28-2.08,7.9,7.9,0,0,1,3.31-3.62.57.57,0,0,1,.13-.08,1,1,0,0,0,.65-1.09,2.43,2.43,0,0,1,1.29-2.38.87.87,0,0,0,.5-.79,1.48,1.48,0,0,1,1.16-1.35,2,2,0,0,1,1.66.09,1.1,1.1,0,0,0,.95,0c.82-.28,1.62-.6,2.46-.83a18.4,18.4,0,0,1,4.62-.58,2.14,2.14,0,0,1,2.07,2.62c0,.19,0,.27.17.33.52.2,1,.42,1.57.6a7,7,0,0,1,2.2,1.1l.24.13a1.85,1.85,0,0,1,.85-1.26,2.07,2.07,0,0,1,1.75-.17c.95.31,1.89.66,2.84,1a3.42,3.42,0,0,0,1.52.23,5.68,5.68,0,0,1,1,0,1.9,1.9,0,0,1,1.56,1.11,13.28,13.28,0,0,1,1.11,3.27c.28,1.17.6,2.33.92,3.48a2.35,2.35,0,0,0,1,1.36,6.69,6.69,0,0,1,2.21,2.65c.54,1,.48.93,1.57.69a5.12,5.12,0,0,0,2.61-1.41,4.15,4.15,0,0,1,.32-.27A1.87,1.87,0,0,1,270.87,265.92Z" transform="translate(-186.48 -198.61)"/><path class="cls-7" d="M270.35,281.45a4.88,4.88,0,0,1,.26.82,5.84,5.84,0,0,1-.46,3,7.87,7.87,0,0,0-.54,2.3,3.49,3.49,0,0,1-.56,1.39,1.56,1.56,0,0,1-.76.45.52.52,0,0,1-.43-.19,3.07,3.07,0,0,1-.51-2.78,2.88,2.88,0,0,0,.13-.83,2.46,2.46,0,0,0,0-.54,1.32,1.32,0,0,1,.78-1.49,3.77,3.77,0,0,0,1.89-2,1.33,1.33,0,0,1,.14-.19Z" transform="translate(-186.48 -198.61)"/></svg>